<svg xmlns="http://www.w3.org/2000/svg" width="800" height="500" viewBox="0 0 800 500">
<rect width="800" height="500" fill="#faf8f4"/>

<!-- Browser chrome -->
<rect width="800" height="32" fill="#f0ece4"/>
<circle cx="16" cy="16" r="5" fill="#ff5f57"/>
<circle cx="30" cy="16" r="5" fill="#ffbd2e"/>
<circle cx="44" cy="16" r="5" fill="#28c840"/>
<rect x="68" y="8" width="180" height="16" rx="8" fill="#e8e0d4"/>
<text x="165" y="21" fill="#8a7f72" font-family="sans-serif" font-size="9" text-anchor="middle">yourbrand.com</text>

<!-- Navbar -->
<rect y="32" width="800" height="44" fill="#f0ece4" stroke="#e8e0d4" stroke-width="1"/>
<text x="24" y="61" fill="#8b6914" font-family="Georgia,serif" font-size="17" font-weight="900" letter-spacing="3">BRAND</text>
<text x="230" y="61" fill="#8a7f72" font-family="sans-serif" font-size="11">New Arrivals</text>
<text x="330" y="61" fill="#8a7f72" font-family="sans-serif" font-size="11">Women</text>
<text x="392" y="61" fill="#8a7f72" font-family="sans-serif" font-size="11">Men</text>
<text x="448" y="61" fill="#8a7f72" font-family="sans-serif" font-size="11">Sale</text>
<circle cx="730" cy="54" r="12" fill="#8b6914" fill-opacity="0.15"/>
<text x="724" y="59" fill="#8b6914" font-family="sans-serif" font-size="13">&#9825;</text>
<circle cx="756" cy="54" r="12" fill="#8b6914" fill-opacity="0.15"/>
<text x="749" y="59" fill="#1a1612" font-family="sans-serif" font-size="13">&#127874;</text>
<circle cx="768" cy="46" r="8" fill="#8b6914"/>
<text x="768" y="50" fill="#fff" font-family="sans-serif" font-size="8" text-anchor="middle" font-weight="700">2</text>

<!-- Hero -->
<rect y="76" width="800" height="160" fill="#8b6914" fill-opacity="0.07"/>
<circle cx="660" cy="155" r="100" fill="#8b6914" fill-opacity="0.07"/>
<circle cx="720" cy="110" r="60" fill="#8b6914" fill-opacity="0.09"/>
<rect x="590" y="86" width="68" height="110" rx="14" fill="#8b6914" fill-opacity="0.22"/>
<rect x="609" y="76" width="30" height="26" rx="6" fill="#8b6914" fill-opacity="0.30"/>
<text x="40" y="116" fill="#8b6914" font-family="sans-serif" font-size="10" font-weight="700" letter-spacing="4">NEW COLLECTION</text>
<text x="40" y="154" fill="#1a1612" font-family="Georgia,serif" font-size="36" font-weight="900">Summer Edit</text>
<text x="40" y="196" fill="#1a1612" font-family="Georgia,serif" font-size="36" font-weight="900">2025</text>
<rect x="40" y="204" width="118" height="26" rx="7" fill="#8b6914"/>
<text x="99" y="221" fill="#ffffff" font-family="sans-serif" font-size="11" font-weight="700" text-anchor="middle">Shop Now &#8594;</text>

<!-- Section label -->
<text x="40" y="238" fill="#8a7f72" font-family="sans-serif" font-size="9" font-weight="700" letter-spacing="4">TRENDING NOW</text>

<!-- Product cards -->
<rect x="40" y="245" width="155" height="205" rx="12" fill="#f0ece4" stroke="#e8e0d4" stroke-width="1"/>
<rect x="40" y="245" width="155" height="115" rx="12" fill="#8b6914" fill-opacity="0.18"/>
<rect x="92" y="262" width="50" height="70" rx="8" fill="#8b6914" fill-opacity="0.4"/>
<rect x="100" y="255" width="34" height="20" rx="4" fill="#8b6914" fill-opacity="0.55"/>
<text x="52" y="378" fill="#1a1612" font-family="Georgia,serif" font-size="11" font-weight="600">Silk Midi Dress</text>
<text x="52" y="396" fill="#8b6914" font-family="sans-serif" font-size="12" font-weight="700">&#8377;2,499</text>
<text x="52" y="412" fill="#f59e0b" font-family="sans-serif" font-size="11">&#9733;&#9733;&#9733;&#9733;&#9734;</text>
<rect x="50" y="420" width="135" height="22" rx="6" fill="#8b6914"/>
<text x="117" y="435" fill="#ffffff" font-family="sans-serif" font-size="10" font-weight="700" text-anchor="middle">Add to Cart</text>
<rect x="220" y="245" width="155" height="205" rx="12" fill="#f0ece4" stroke="#e8e0d4" stroke-width="1"/>
<rect x="220" y="245" width="155" height="115" rx="12" fill="#8b6914" fill-opacity="0.18"/>
<rect x="272" y="262" width="50" height="70" rx="8" fill="#8b6914" fill-opacity="0.4"/>
<rect x="280" y="255" width="34" height="20" rx="4" fill="#8b6914" fill-opacity="0.55"/>
<text x="232" y="378" fill="#1a1612" font-family="Georgia,serif" font-size="11" font-weight="600">Linen Blazer</text>
<text x="232" y="396" fill="#8b6914" font-family="sans-serif" font-size="12" font-weight="700">&#8377;3,899</text>
<text x="232" y="412" fill="#f59e0b" font-family="sans-serif" font-size="11">&#9733;&#9733;&#9733;&#9733;&#9734;</text>
<rect x="230" y="420" width="135" height="22" rx="6" fill="#8b6914"/>
<text x="297" y="435" fill="#ffffff" font-family="sans-serif" font-size="10" font-weight="700" text-anchor="middle">Add to Cart</text>
<rect x="400" y="245" width="155" height="205" rx="12" fill="#f0ece4" stroke="#e8e0d4" stroke-width="1"/>
<rect x="400" y="245" width="155" height="115" rx="12" fill="#8b6914" fill-opacity="0.18"/>
<rect x="452" y="262" width="50" height="70" rx="8" fill="#8b6914" fill-opacity="0.4"/>
<rect x="460" y="255" width="34" height="20" rx="4" fill="#8b6914" fill-opacity="0.55"/>
<text x="412" y="378" fill="#1a1612" font-family="Georgia,serif" font-size="11" font-weight="600">Wide Leg Trousers</text>
<text x="412" y="396" fill="#8b6914" font-family="sans-serif" font-size="12" font-weight="700">&#8377;1,799</text>
<text x="412" y="412" fill="#f59e0b" font-family="sans-serif" font-size="11">&#9733;&#9733;&#9733;&#9733;&#9734;</text>
<rect x="410" y="420" width="135" height="22" rx="6" fill="#8b6914"/>
<text x="477" y="435" fill="#ffffff" font-family="sans-serif" font-size="10" font-weight="700" text-anchor="middle">Add to Cart</text>
<rect x="580" y="245" width="155" height="205" rx="12" fill="#f0ece4" stroke="#e8e0d4" stroke-width="1"/>
<rect x="580" y="245" width="155" height="115" rx="12" fill="#8b6914" fill-opacity="0.18"/>
<rect x="632" y="262" width="50" height="70" rx="8" fill="#8b6914" fill-opacity="0.4"/>
<rect x="640" y="255" width="34" height="20" rx="4" fill="#8b6914" fill-opacity="0.55"/>
<text x="592" y="378" fill="#1a1612" font-family="Georgia,serif" font-size="11" font-weight="600">Knit Cardigan</text>
<text x="592" y="396" fill="#8b6914" font-family="sans-serif" font-size="12" font-weight="700">&#8377;2,199</text>
<text x="592" y="412" fill="#f59e0b" font-family="sans-serif" font-size="11">&#9733;&#9733;&#9733;&#9733;&#9734;</text>
<rect x="590" y="420" width="135" height="22" rx="6" fill="#8b6914"/>
<text x="657" y="435" fill="#ffffff" font-family="sans-serif" font-size="10" font-weight="700" text-anchor="middle">Add to Cart</text>

<!-- Trust bar -->
<rect y="464" width="800" height="36" fill="#f0ece4" stroke="#e8e0d4" stroke-width="1"/>
<text x="100" y="487" fill="#8a7f72" font-family="sans-serif" font-size="10" text-anchor="middle">&#128666;  Free Delivery</text>
<text x="290" y="487" fill="#8a7f72" font-family="sans-serif" font-size="10" text-anchor="middle">&#8617;  Easy Returns</text>
<text x="480" y="487" fill="#8a7f72" font-family="sans-serif" font-size="10" text-anchor="middle">&#128274;  Secure Pay</text>
<text x="670" y="487" fill="#8a7f72" font-family="sans-serif" font-size="10" text-anchor="middle">&#9733; 4.8 Rating</text>

<!-- Name watermark -->
<text x="796" y="494" fill="#8a7f72" font-family="sans-serif" font-size="8" text-anchor="end" opacity="0.5">Ivory Luxe</text>
</svg>